<svg xmlns="http://www.w3.org/2000/svg" version="1.1" xmlns:xlink="http://www.w3.org/1999/xlink" xmlns:svgjs="http://svgjs.com/svgjs" width="64" height="64"><svg xmlns="http://www.w3.org/2000/svg" viewBox="0 0 32 32" width="64" height="64" fill="currentColor" aria-hidden="true"><path d="M13.681.995C11.007.278 8.217.646 5.821 2.03 3.425 3.413 1.711 5.647.995 8.32s-.349 5.464 1.035 7.86c1.917 3.32 5.405 5.177 8.988 5.177 1.756 0 3.535-.446 5.162-1.386 4.946-2.855 6.647-9.204 3.792-14.15-1.385-2.396-3.618-4.11-6.291-4.826zm5.179 15.583V9.623h-.72v7.853c-.654.724-1.431 1.358-2.321 1.872-1.797 1.037-3.795 1.425-5.715 1.246l6.019-3.476-.36-.624-6.794 3.922c-2.568-.555-4.901-2.148-6.315-4.598-.151-.262-.29-.53-.415-.802l6.024 3.478.36-.623-6.804-3.928c-.564-1.748-.615-3.623-.129-5.438.302-1.126.794-2.169 1.45-3.093v6.964h.72V4.519c.663-.729 1.443-1.359 2.321-1.866 1.797-1.038 3.792-1.431 5.715-1.246L5.877 4.881l.36.624 6.793-3.923c2.568.556 4.902 2.149 6.316 4.599.151.263.29.53.414.801l-6.024-3.478-.36.624 6.801 3.926c.937 2.914.41 6.081-1.317 8.524zm0 10.098V21h-.72v5.676c-1.13.175-2 1.146-2 2.324 0 1.302 1.058 2.36 2.36 2.36s2.36-1.059 2.36-2.36c0-1.178-.87-2.149-2-2.324zm-.36 3.964c-.904 0-1.64-.735-1.64-1.64s.736-1.64 1.64-1.64 1.64.735 1.64 1.64-.736 1.64-1.64 1.64zm10.36-3.964V11.981c0-.128-.069-.248-.181-.312l-5.163-2.981-.359.624 4.982 2.877v14.487c-1.13.175-2 1.146-2 2.324 0 1.302 1.059 2.36 2.36 2.36s2.36-1.059 2.36-2.36c.001-1.178-.869-2.149-1.999-2.324zm-.36 3.964c-.904 0-1.64-.735-1.64-1.64s.735-1.64 1.64-1.64 1.64.735 1.64 1.64-.736 1.64-1.64 1.64zM8.86 26.676V23h-.72v3.676c-1.13.175-2 1.146-2 2.324 0 1.302 1.059 2.36 2.36 2.36s2.36-1.059 2.36-2.36c0-1.178-.87-2.149-2-2.324zM8.5 30.64c-.904 0-1.64-.735-1.64-1.64s.736-1.64 1.64-1.64 1.64.735 1.64 1.64-.736 1.64-1.64 1.64z"></path></svg><style>@media (prefers-color-scheme: light) { :root { filter: none; } }
@media (prefers-color-scheme: dark) { :root { filter: invert(100%); } }
</style></svg>